# xmcd
#
# Track frame offsets:
#  150
#  7870
#  25283
#  43276
#  48628
#  59890
#  69860
#  87387
#  96500
#  112946
#  126086
#  134688
#  152657
#  160801
#  175999
#  187366
#  190329
#  192301
#  209768
#  220809
#  229331
#  249435
#  266823
#  269814
#  284128
#  293470
#  307360
#  310381
#  316470
#  329471
#  341728
#
# Disc length: 4640 seconds
#
# Revision: 0
# Processed by: cddbd v1.5.2PL0 Copyright (c) Steve Scherf et al.
# Submitted via: AltoMP3_Maker 3.0
#
DISCID=03121e1f
DTITLE=Jim Haynes - The Complete Jim Haynes Collection [CD2]
DYEAR=1900
DGENRE=
TTITLE0=Dot The Barmaid
TTITLE1=Top 10 Insurance Claims
TTITLE2=CWA
TTITLE3=The Little Duck
TTITLE4=Jim and Grant Chat Holiday
TTITLE5=Retirement
TTITLE6=Top 10  Things Kids Know by 8
TTITLE7=Drunks
TTITLE8=Jim and Grant Chat Touring
TTITLE9=Sunday School
TTITLE10=Ponsonby Meets a Tiger (Joke)
TTITLE11=Top 10 Dumb Instructions
TTITLE12=Divorce
TTITLE13=Curiosity
TTITLE14=Jim and Grant Chat School
TTITLE15=Russell in Hospital
TTITLE16=Stage Announcement
TTITLE17=Top 10 Headlines
TTITLE18=Chimp (Joke)
TTITLE19=VW and The Porsche (Joke)
TTITLE20=Aging
TTITLE21=Top 10 Signs Seen Overseas
TTITLE22=Lady at Doctor
TTITLE23=Jim and Grant Chat Ex Wife
TTITLE24=Chokos
TTITLE25=Top 10 Housing Complaints
TTITLE26=Valentines Day (Joke)
TTITLE27=Russell at Bondi
TTITLE28=Jim and Grant Chat Christmas
TTITLE29=Top 10 Local Paper Headlines
TTITLE30=Aging Number 2
EXTD=
EXTT0=
EXTT1=
EXTT2=
EXTT3=
EXTT4=
EXTT5=
EXTT6=
EXTT7=
EXTT8=
EXTT9=
EXTT10=
EXTT11=
EXTT12=
EXTT13=
EXTT14=
EXTT15=
EXTT16=
EXTT17=
EXTT18=
EXTT19=
EXTT20=
EXTT21=
EXTT22=
EXTT23=
EXTT24=
EXTT25=
EXTT26=
EXTT27=
EXTT28=
EXTT29=
EXTT30=
PLAYORDER=
